<svg width="24" height="22" viewBox="0 0 24 22" fill="none" xmlns="http://www.w3.org/2000/svg">
<path d="M7.05208 17.1189C5.79237 17.1189 4.76169 18.0368 4.76169 19.1586C4.76169 20.2804 5.79237 21.1982 7.05208 21.1982C8.3118 21.1982 9.34248 20.2804 9.34248 19.1586C9.34248 18.0368 8.3118 17.1189 7.05208 17.1189ZM0.180908 0.801758V2.8414H2.4713L6.59401 10.592L4.99073 13.0396C4.87621 13.3456 4.76169 13.7535 4.76169 14.0594C4.76169 15.1812 5.79237 16.0991 7.05208 16.0991H20.7944V14.0594H7.51016C7.39564 14.0594 7.28112 13.9575 7.28112 13.8555V13.7535L8.3118 12.0198H16.7863C17.7024 12.0198 18.3895 11.6118 18.7331 10.9999L22.8558 4.37113C23.0848 4.16717 23.0848 4.06519 23.0848 3.86122C23.0848 3.24933 22.6268 2.8414 21.9396 2.8414H4.99073L3.96006 0.801758H0.180908ZM18.504 17.1189C17.2443 17.1189 16.2137 18.0368 16.2137 19.1586C16.2137 20.2804 17.2443 21.1982 18.504 21.1982C19.7638 21.1982 20.7944 20.2804 20.7944 19.1586C20.7944 18.0368 19.7638 17.1189 18.504 17.1189Z" fill="#FAF3F3"/>
</svg>
