<svg width="20" height="18" viewBox="0 0 20 18" fill="none" xmlns="http://www.w3.org/2000/svg">
<path d="M14.6202 0.568848C12.8794 0.568848 11.3397 1.64635 10.3961 2.97428C9.45261 1.64635 7.91287 0.568848 6.17215 0.568848C3.30084 0.568848 0.973145 2.92198 0.973145 5.82463C0.973145 6.12694 0.99973 6.42286 1.04832 6.71119C1.04832 6.71182 1.04832 6.71223 1.04832 6.71289C1.04832 12.7574 10.3961 17.4311 10.3961 17.4311C10.3961 17.4311 19.744 12.9162 19.744 6.71289C19.744 6.71223 19.744 6.71182 19.744 6.71119C19.7926 6.42289 19.8191 6.12694 19.8191 5.82463C19.8191 2.92198 17.4914 0.568848 14.6202 0.568848Z" fill="#FAF3F3"/>
</svg>
